<?xml version="1.0" encoding="UTF-8" standalone="no"?><svg xmlns="http://www.w3.org/2000/svg" xmlns:xlink="http://www.w3.org/1999/xlink" fill="#93a496" height="22" preserveAspectRatio="xMidYMid meet" version="1" viewBox="1.0 1.0 22.1 22.0" width="22.1" zoomAndPan="magnify"><g id="change1_1"><path d="M22.479,21.96H20.332V9.033h2.147a.515.515,0,0,0,.148-1.009c-5.606-1.676-10.2-6.8-10.241-6.848a.531.531,0,0,0-.772,0c-.045.051-4.635,5.172-10.241,6.848a.515.515,0,0,0,.148,1.009H3.668V21.96H1.521a.515.515,0,1,0,0,1.03H22.479a.515.515,0,0,0,0-1.03Zm-16.52,0H4.7V9.033h1.26Zm11.052,0H6.989V9.033H17.011Zm2.29,0h-1.26V9.033H19.3ZM4.255,8A28.611,28.611,0,0,0,12,2.273,28.611,28.611,0,0,0,19.745,8Z" fill="inherit"/></g><g id="change1_2"><path d="M11.656,18.417a.514.514,0,0,0,.688,0,36.647,36.647,0,0,0,2.686-2.606,1.994,1.994,0,0,0,.345-1.7,2.249,2.249,0,0,0-1.265-1.5,2,2,0,0,0-2.11.364,2,2,0,0,0-2.11-.364,2.249,2.249,0,0,0-1.265,1.5,1.994,1.994,0,0,0,.345,1.7A36.647,36.647,0,0,0,11.656,18.417ZM9.627,14.354a1.217,1.217,0,0,1,.693-.81.718.718,0,0,1,.3-.067,1.543,1.543,0,0,1,.978.538.513.513,0,0,0,.4.186h0a.518.518,0,0,0,.4-.185c.006-.007.65-.763,1.283-.472h0a1.217,1.217,0,0,1,.693.81.967.967,0,0,1-.159.828A30.4,30.4,0,0,1,12,17.339a30.4,30.4,0,0,1-2.214-2.157A.967.967,0,0,1,9.627,14.354Z" fill="inherit"/></g></svg>