<?xml version="1.0" encoding="UTF-8" standalone="no"?><svg xmlns="http://www.w3.org/2000/svg" xmlns:xlink="http://www.w3.org/1999/xlink" fill="#93a496" height="62.2" preserveAspectRatio="xMidYMid meet" version="1" viewBox="2.1 0.9 59.8 62.2" width="59.8" zoomAndPan="magnify"><g id="change1_1"><path d="M61.29524,53.78756A51.349,51.349,0,0,0,55.71907,50.644c-.14942-.07226-.25293-.12011-.3125-.15429a7.29337,7.29337,0,0,0-4.11042-1.13782c-.40332-1.4361-.84588-3.10144-1.27825-4.73621-.63459-2.39966-1.08271-4.07934-1.40082-5.1048a7.81575,7.81575,0,0,0,2.83929-2.3991c2.47363-3.34668,2.76758-8.84278.749-14.001l-.2627-.6709c-1.77637-4.55469-2.95117-7.56445-6.35352-11.16113a1.00209,1.00209,0,0,0-1.17382-.207c-.19141.0625-.8086.22265-1.40625.37793-5.8877,1.52832-10.06446,2.85547-11.31153,4.3623a1.0032,1.0032,0,0,0-.22558.73145l.01367.1455c.01105.11823.02582.22675.03723.34406-5.54517-2.41235-9.63708-3.94232-11.53332-3.51593a.99725.99725,0,0,0-.62891.43652l-.07617.11914c-8.24219,12.82422-9.86621,21.66016-4.82617,26.2627A9.98881,9.98881,0,0,0,16.80745,41.95c-.41822,1.08032-1.24756,3.00995-2.00245,4.7663-.67376,1.5683-1.3598,3.16662-1.93463,4.56335-1.85125-.2879-3.817.46033-5.4638,1.0968a13.19318,13.19318,0,0,1-3.6211,1.04395c-1.19238.07617-1.4707.708-1.53027,1.07812-.20215,1.252.7207,2.05567,12.47656,6.81446,1.669.67578,3.39356,1.374,3.67676,1.542a1.002,1.002,0,0,0,1.46191-1.18848,51.03753,51.03753,0,0,0-2.4541-5.92382c-.07226-.14454-.12207-.24415-.14746-.30469a7.29659,7.29659,0,0,0-2.53564-3.43036c.56628-1.37512,1.24353-2.95331,1.90869-4.50128.98309-2.28723,1.66791-3.89026,2.05072-4.89649a7.56649,7.56649,0,0,0,1.54791.16114,8.1256,8.1256,0,0,0,2.167-.30176c4.01172-1.1084,7.63184-5.25391,9.22461-10.56055l.21-.69726c.4867-1.61664.90979-3.03974,1.24469-4.41864.26447,1.08715.55994,2.09143.87275,3.04876l-.011.00659c.00708.01178.01721.02362.0246.03547,2.1651,6.59722,5.47314,10.11541,9.908,10.45086.28906.02149.57324.03321.85254.03321a9.57809,9.57809,0,0,0,1.99456-.20405c.33655,1.10755.87012,3.12555,1.356,4.96381.43842,1.65436.88593,3.34107,1.29645,4.8-1.63556.91553-2.7215,2.71851-3.62457,4.23511a13.23991,13.23991,0,0,1-2.20606,3.05566c-.8916.79395-.72168,1.46387-.541,1.792.22558.40723.53222.67383,1.4375.67383,1.55664,0,4.88281-.79,12.59863-3.00781,1.72461-.49609,3.50879-1.00879,3.834-1.05078a1.00787,1.00787,0,0,0,.85254-.77637A.99766.99766,0,0,0,61.29524,53.78756ZM15.62239,56.62838c.26953.54492.80859,1.63769,1.54687,3.51562-.47851-.19531-1.03808-.42187-1.6875-.68457-2.65722-1.07617-7.54-3.05273-9.97656-4.31445a24.83515,24.83515,0,0,0,2.62207-.90332c3.56934-1.37891,5.669-1.96582,7.29492,1.96289C15.45735,56.28951,15.52375,56.42818,15.62239,56.62838ZM43.51106,13.38521c.45117-.11718.79-.20507,1.04785-.27441,2.4997,2.76623,3.6004,5.1842,4.98694,8.69452-1.34088,3.819-7.25952,6.86438-11.10022,7.40021a3.7324,3.7324,0,0,1-2.6886-.28168,54.79462,54.79462,0,0,1-2.0047-9.88715c-.01324-.17688-.01532-.3399-.03229-.5216a.97978.97978,0,0,0-.05621-.21283c-.05408-.47907-.10608-.96662-.15472-1.46784C35.17512,15.54928,41.38215,13.938,43.51106,13.38521ZM21.87434,40.54146A6.17334,6.17334,0,0,1,15.807,38.85885c-2.02466-1.84876-3.33972-5.4682-.70294-12.53113a13.86008,13.86008,0,0,0,3.71563,3.28113,13.05151,13.05151,0,0,0,6.62012,1.58886,13.46265,13.46265,0,0,0,4.54083-.74157c-.01855.06176-.03473.1167-.05352.17907l-.21094.69922c-.05542.18469-.11835.36536-.17938.547-.02967.00653-.05988.0033-.08918.01257-.10156.0166-.25781.03028-.37011.041-.14356.01367-.252.0293-.27442.03418a15.46019,15.46019,0,0,1-4.22851.30176c-.51758-.01563-1.083-.03223-1.75-.03223a1,1,0,0,0,0,2c.64453,0,1.19043.0166,1.6914.03125.43848.01269.84864.02441,1.26172.02441a15.532,15.532,0,0,0,2.87714-.2666C27.03511,37.32308,24.50734,39.81338,21.87434,40.54146Zm8.8656-12.675c-3.15106,2.03277-8.65967,1.47894-10.82849.06659-2.28888-1.49274-3.54974-2.86487-3.781-4.08918a68.12892,68.12892,0,0,1,4.65406-8.405c2.10351.01661,7.97656,2.57325,9.99218,3.44922.427.1864.74653.3255.99347.42957.00531.04346.00922.09064.01459.134A23.18367,23.18367,0,0,1,30.73994,27.86648ZM44.03157,38.34029c-2.40845-.18225-5.23181-1.78485-7.42871-7.08008.21716.02149.44958.03321.69922.03321A10.29617,10.29617,0,0,0,38.722,31.187c3.78338-.52881,9.27752-3.10345,11.77942-6.87115a17.50638,17.50638,0,0,1,.58441,2.00567,1.60506,1.60506,0,0,0-.2359.302c-.0918.14942-.26172.42969-.32618.51758a29.09846,29.09846,0,0,1-3.19042,2.52246.99985.99985,0,0,0,.48046,1.877.98686.98686,0,0,0,.47852-.123,30.00228,30.00228,0,0,0,3.20093-2.45215,10.67651,10.67651,0,0,1-1.64527,6.957A6.1638,6.1638,0,0,1,44.03157,38.34029ZM56.4925,54.75435c-2.75878.793-7.82617,2.25-10.52539,2.75977A25.156,25.156,0,0,0,47.474,55.187c1.375-2.30566,2.41992-3.85937,4.19921-3.85937a5.76422,5.76422,0,0,1,2.75.90429c.08106.04493.22267.11524.42872.21387.54785.26367,1.64551.792,3.37793,1.81055C57.73567,54.39693,57.1595,54.562,56.4925,54.75435Z"/></g><g id="change1_2"><path d="M19.6429,7.7026a43.21843,43.21843,0,0,1,3.98632,2.93261.99961.99961,0,1,0,1.31055-1.50976,44.5502,44.5502,0,0,0-4.17969-3.082c-.44336-.29883-.78125-.52344-.93359-.64649a1,1,0,0,0-1.25586,1.55664C18.74641,7.09517,19.13118,7.35787,19.6429,7.7026Z"/></g><g id="change1_3"><path d="M28.82454,8.17916a1,1,0,0,0,.99609.92578c.02441,0,.0498-.001.07422-.00293a.999.999,0,0,0,.92383-1.07031c-.31836-4.31153-.49024-5.124-.90039-6.34863a.99995.99995,0,0,0-1.89649.63476C28.34993,3.29928,28.50911,3.91256,28.82454,8.17916Z"/></g><g id="change1_4"><path d="M36.14778,9.52584a1.00168,1.00168,0,0,0,1.293-.57422c.22363-.583.53515-1.24121.96582-2.15234.28613-.60547.62207-1.31739,1.01855-2.18848a.99992.99992,0,0,0-1.82031-.82813c-.3916.86036-.72363,1.56348-1.00684,2.16211-.44922.9502-.77343,1.63672-1.02441,2.28809A1.00046,1.00046,0,0,0,36.14778,9.52584Z"/></g><g id="change1_5"><path d="M20.08821,31.5356a4.6577,4.6577,0,0,1-1.36426-.52636.99982.99982,0,1,0-1.18945,1.60742,6.33552,6.33552,0,0,0,2.03222.84863.96492.96492,0,0,0,.26172.03516.99978.99978,0,0,0,.25977-1.96485Z"/></g><g id="change1_6"><path d="M44.93489,31.33443a1.22057,1.22057,0,0,0-.53321.24121,2.56134,2.56134,0,0,1-.3125.19239,1.0001,1.0001,0,0,0,.21094,1.97754,1.02054,1.02054,0,0,0,.17871-.01563,2.93127,2.93127,0,0,0,1.085-.52539,1.00024,1.00024,0,0,0-.6289-1.87012Z"/></g></svg>